HIERARCHY
ROOT Hips
{
	OFFSET 0.000000 0.000000 0.000000
	CHANNELS 6 Xposition Yposition Zposition Zrotation Yrotation Xrotation 
	JOINT LHipJoint
	{
		OFFSET 0.000000 0.000000 0.000000
		CHANNELS 3 Zrotation Yrotation Xrotation
		JOINT LeftUpLeg
		{
			OFFSET 1.363060 -1.794630 0.839290
			CHANNELS 3 Zrotation Yrotation Xrotation
			JOINT LeftLeg
			{
				OFFSET 2.448110 -6.726130 0.000000
				CHANNELS 3 Zrotation Yrotation Xrotation
				JOINT LeftFoot
				{
					OFFSET 2.562200 -7.039590 0.000000
					CHANNELS 3 Zrotation Yrotation Xrotation
					JOINT LeftToeBase
					{
						OFFSET 0.157640 -0.433110 2.322550
						CHANNELS 3 Zrotation Yrotation Xrotation
						End Site
						{
							OFFSET 0.000000 0.000000 0.000000
						}
					}
				}
			}
		}
	}
	JOINT RHipJoint
	{
		OFFSET 0.000000 0.000000 0.000000
		CHANNELS 3 Zrotation Yrotation Xrotation
		JOINT RightUpLeg
		{
			OFFSET -1.305520 -1.794630 0.839290
			CHANNELS 3 Zrotation Yrotation Xrotation
			JOINT RightLeg
			{
				OFFSET -2.542530 -6.985550 0.000000
				CHANNELS 3 Zrotation Yrotation Xrotation
				JOINT RightFoot
				{
					OFFSET -2.568260 -7.056230 0.000000
					CHANNELS 3 Zrotation Yrotation Xrotation
					JOINT RightToeBase
					{
						OFFSET -0.164730 -0.452590 2.363150
						CHANNELS 3 Zrotation Yrotation Xrotation
						End Site
						{
							OFFSET 0.000000 0.000000 0.000000
						}
					}
				}
			}
		}
	}
}
MOTION
Frames: 25
Frame Time: 0.008333
18.475482 16.153602 2.531716 51.391843 -88.769000 13.249917 -8.005263 -0.736702 3.808640 -3.748310 -14.643031 -80.383143 -2.275854 -0.955361 22.083137 4.278792 13.269888 -14.517254 -0.216600 0.000001 -36.212600 7.863812 1.211948 5.075300 0.321178 11.937541 -82.287150 2.750467 0.035350 23.018931 -3.356019 -8.218353 -12.913990 -0.601800 0.000000 -57.636900
18.449143 16.060298 2.532918 56.481234 -88.582958 9.207541 -7.916908 -0.692786 3.987772 -3.408581 -15.328597 -82.679770 -2.220896 -0.753899 24.321743 4.466267 13.386690 -15.701733 -0.513000 -0.000000 -36.000800 7.955113 1.231045 5.264700 -0.382074 11.974457 -84.916250 2.621961 -0.356783 25.734226 -3.463719 -8.109792 -14.080458 -0.390000 -0.000000 -57.123101
18.422214 15.958511 2.533964 61.545096 -88.359067 5.169165 -7.841867 -0.662985 4.167514 -3.065814 -16.031409 -85.042001 -2.157229 -0.524444 26.738833 4.653496 13.463228 -16.986569 -0.846600 0.000000 -35.734400 8.040182 1.254798 5.449456 -1.132348 11.955090 -87.598661 2.473294 -0.773763 28.619515 -3.571250 -8.003092 -15.303764 -0.166000 0.000000 -56.543200
18.394605 15.847696 2.534767 66.463812 -88.101926 1.250842 -7.779688 -0.645878 4.346062 -2.720890 -16.746847 -87.457917 -2.083068 -0.267332 29.325503 4.838927 13.502377 -18.365176 -1.214300 -0.000000 -35.375600 8.118374 1.289390 5.628454 -1.929081 11.877989 -90.318684 2.302663 -1.210847 31.665687 -3.678723 -7.904594 -16.581143 0.069799 -0.000000 -55.878100
18.366635 15.727821 2.535442 71.030422 -87.823238 -2.351936 -7.729367 -0.640078 4.519794 -2.370990 -17.461598 -89.911124 -1.995929 0.017027 32.072328 5.019958 13.506740 -19.825280 -1.611300 0.000000 -34.892900 8.188248 1.340500 5.800420 -2.761969 11.750952 -93.047424 2.109523 -1.660444 34.847967 -3.787035 -7.825466 -17.902528 0.316200 0.000000 -55.123200
18.337845 15.598974 2.536014 75.132962 -87.531452 -5.535064 -7.688205 -0.644775 4.684483 -2.014455 -18.165338 -92.381581 -1.893396 0.326007 34.963129 5.194603 13.485056 -21.346150 -2.029900 -0.000000 -34.265100 8.250166 1.412962 5.964079 -3.620409 11.579496 -95.756466 1.893908 -2.115378 38.140159 -3.896473 -7.774463 -19.257071 0.572501 0.000000 -54.278699
18.308629 15.461625 2.536718 78.631100 -87.240271 -8.169634 -7.653937 -0.661145 4.835353 -1.645493 -18.842105 -94.846660 -1.772559 0.656175 37.980507 5.360249 13.446258 -22.902698 -2.461800 -0.000000 -33.481699 8.303405 1.508317 6.118076 -4.485134 11.377234 -98.411255 1.657509 -2.567445 41.506672 -4.007778 -7.762065 -20.629801 0.837500 -0.000000 -53.360200
18.278994 15.316411 2.537525 81.563338 -86.952496 -10.302577 -7.622979 -0.690815 4.968196 -1.265215 -19.488519 -97.281142 -1.631484 1.001472 41.097609 5.516045 13.407251 -24.463257 -2.897800 0.000000 -32.551100 8.348984 1.627701 6.260325 -5.345279 11.146553 -100.986899 1.401621 -3.011352 44.921335 -4.120002 -7.792321 -22.007323 1.110700 -0.000000 -52.384100
18.248921 15.164379 2.538692 83.863680 -86.684273 -11.877828 -7.594291 -0.738655 5.076685 -0.868244 -20.083888 -99.657990 -1.468160 1.356995 44.292456 5.659356 13.379119 -25.998062 -3.330000 0.000000 -31.498900 8.384876 1.767307 6.386910 -6.173105 10.908163 -103.445662 1.130630 -3.439562 48.341211 -4.233099 -7.870533 -23.374485 1.391600 -0.000000 -51.371000
18.218016 15.005886 2.539716 85.796292 -86.407018 -13.156501 -7.563246 -0.800528 5.168119 -0.468102 -20.665694 -101.958848 -1.282698 1.711176 47.518805 5.795145 13.393096 -27.472543 -3.753600 -0.000000 -30.347401 8.417284 1.929897 6.502456 -6.991168 10.630808 -105.799581 0.841590 -3.854217 51.774230 -4.343730 -7.993511 -24.716716 1.678400 -0.000000 -50.375000
18.186753 14.842762 2.541301 87.178956 -86.155744 -13.969418 -7.531269 -0.884191 5.232184 -0.053439 -21.190769 -104.158433 -1.074203 2.062022 50.764865 5.918483 13.448374 -28.867841 -4.164500 0.000000 -29.153300 8.440550 2.107121 6.598309 -7.750543 10.359196 -107.998391 0.543079 -4.246732 55.160561 -4.452734 -8.164484 -26.021983 1.971600 -0.000000 -49.406300
18.154692 14.676000 2.543268 88.147168 -85.919301 -14.451913 -7.496322 -0.987755 5.272157 0.367315 -21.673836 -106.241554 -0.844252 2.402131 53.997740 6.031975 13.561754 -30.164885 -4.562201 0.000000 -27.961400 8.457464 2.297926 6.675002 -8.454684 10.084502 -110.042414 0.235740 -4.618108 58.492909 -4.557958 -8.378541 -27.281161 2.270200 0.000000 -48.502800
18.122015 14.506882 2.545658 88.748435 -85.699929 -14.651908 -7.458119 -1.110999 5.287389 0.787545 -22.113276 -108.192098 -0.595217 2.727260 57.194543 6.136004 13.738767 -31.354898 -4.948100 -0.000000 -26.825799 8.468528 2.499040 6.729940 -9.092632 9.813140 -111.920039 -0.077211 -4.967800 61.751523 -4.658363 -8.630618 -28.489994 2.574200 -0.000000 -47.689200
18.087832 14.336241 2.548226 89.107432 -85.480979 -14.689543 -7.415380 -1.248474 5.283107 1.192517 -22.531857 -110.002737 -0.330674 3.032696 60.329796 6.234110 13.987476 -32.437235 -5.326800 -0.000001 -25.781400 8.477619 2.710409 6.766585 -9.676798 9.528511 -113.640226 -0.396152 -5.298392 64.936037 -4.752386 -8.914567 -29.646014 2.882700 0.000000 -46.994300
18.052531 14.165325 2.551073 89.240960 -85.265172 -14.580796 -7.368999 -1.398613 5.259065 1.573426 -22.926854 -111.664634 -0.054486 3.317840 63.390663 6.326429 14.302245 -33.421467 -5.702201 -0.000000 -24.873700 8.485083 2.928473 6.783590 -10.197890 9.237725 -115.196909 -0.718310 -5.610349 68.032104 -4.840194 -9.225454 -30.752188 3.196500 0.000001 -46.435799
18.015351 13.995132 2.553979 89.232986 -85.041844 -14.407946 -7.319005 -1.556343 5.217524 1.912814 -23.313004 -113.171413 0.228788 3.582125 66.363491 6.414918 14.678561 -34.322601 -6.080200 -0.000000 -24.135700 8.493516 3.152241 6.783017 -10.661956 8.930429 -116.594251 -1.043006 -5.906032 71.036994 -4.921190 -9.556113 -31.813858 3.515500 0.000000 -46.026400
17.976541 13.826812 2.557270 89.047651 -84.820719 -14.133145 -7.268006 -1.720558 5.158670 2.203578 -23.680000 -114.519739 0.514974 3.828135 69.243697 6.498293 15.100054 -35.160333 -6.463700 -0.000000 -23.596100 8.502361 3.376071 6.764002 -11.054037 8.621746 -117.827068 -1.366484 -6.185810 73.934716 -4.996935 -9.901617 -32.840435 3.841399 0.000000 -45.767800
17.935429 13.661143 2.560732 88.757703 -84.592092 -13.823661 -7.217069 -1.885784 5.085476 2.428195 -24.041100 -115.707565 0.799486 4.057347 72.022544 6.577970 15.555761 -35.956471 -6.857600 -0.000001 -23.267500 8.514181 3.598547 6.729952 -11.381395 8.302373 -118.902899 -1.688379 -6.451903 76.725051 -5.067600 -10.255680 -33.839631 4.174300 0.000001 -45.666901
17.892010 13.499064 2.564279 88.399953 -84.352607 -13.514808 -7.167836 -2.047860 4.999870 2.571953 -24.401889 -116.732337 1.078298 4.272289 74.694334 6.654090 16.031242 -36.731692 -7.265000 -0.000000 -23.155400 8.530318 3.817013 6.683082 -11.644534 7.970669 -119.825575 -2.007290 -6.705817 79.403509 -5.133609 -10.611911 -34.818420 4.514200 -0.000000 -45.724500
17.845910 13.341376 2.568131 87.949655 -84.108539 -13.175774 -7.122983 -2.204801 4.904806 2.631607 -24.756259 -117.598103 1.348679 4.475979 77.256789 6.725729 16.509808 -37.503442 -7.686000 -0.000001 -23.260000 8.550875 4.027025 6.625118 -11.837005 7.636595 -120.598247 -2.321010 -6.947979 81.961899 -5.196461 -10.966988 -35.781832 4.861200 0.000000 -45.936700
17.797242 13.188568 2.571908 87.533562 -83.854686 -12.925370 -7.084640 -2.351175 4.804310 2.590928 -25.110929 -118.308013 1.607148 4.671735 79.703033 6.793657 16.979832 -38.284518 -8.121300 0.000000 -23.551900 8.577889 4.225439 6.562512 -11.967559 7.295670 -121.235863 -2.628322 -7.179202 84.395310 -5.254901 -11.309249 -36.728522 5.210700 0.000000 -46.306500
17.745524 13.042050 2.575764 87.045401 -83.588386 -12.662325 -7.052667 -2.485975 4.696559 2.447437 -25.469845 -118.847243 1.852426 4.857672 82.025257 6.855851 17.429163 -39.076852 -8.566600 -0.000000 -24.053299 8.611360 4.413883 6.488542 -12.030388 6.944456 -121.720184 -2.927857 -7.400372 86.703117 -5.309476 -11.639130 -37.660328 5.562701 -0.000000 -46.822400
17.690526 12.902185 2.580021 86.464509 -83.329996 -12.352991 -7.031294 -2.609687 4.590863 2.218788 -25.807653 -119.236795 2.083826 5.037503 84.222235 6.910482 17.841976 -39.880341 -9.014100 0.000000 -24.708600 8.649958 4.583342 6.410594 -12.016153 6.610979 -122.068612 -3.216146 -7.609512 88.869340 -5.361598 -11.953360 -38.567179 5.912900 0.000000 -47.479200
17.632671 12.769890 2.584467 85.805144 -83.073874 -12.013792 -7.019971 -2.720385 4.488514 1.904659 -26.130318 -119.472969 2.300409 5.209784 86.286598 6.956884 18.212574 -40.686714 -9.457000 0.000000 -25.500600 8.694436 4.734922 6.327524 -11.929553 6.287288 -122.280888 -3.492098 -7.807564 90.895422 -5.409664 -12.245221 -39.443459 6.256301 0.000000 -48.265200
17.571536 12.645557 2.589160 85.101165 -82.831519 -11.662700 -7.020080 -2.817879 4.394993 1.522987 -26.423784 -119.572597 2.501992 5.374447 88.210508 6.994675 18.536799 -41.481437 -9.885800 0.000000 -26.408600 8.744045 4.865613 6.243690 -11.775421 5.985860 -122.372514 -3.753467 -7.992666 92.771690 -5.452760 -12.509874 -40.271419 6.584800 0.000001 -49.180100
